<?xml version="1.0"?>
<svg xmlns="http://www.w3.org/2000/svg" xmlns:xlink="http://www.w3.org/1999/xlink" xmlns:svgjs="http://svgjs.com/svgjs" version="1.1" width="512" height="512" x="0" y="0" viewBox="0 0 512 512" style="enable-background:new 0 0 512 512" xml:space="preserve" class=""><g><path xmlns="http://www.w3.org/2000/svg" d="m392 488h-272a48 48 0 0 1 -48-48v-368a48 48 0 0 1 48-48h224l96 96v320a48 48 0 0 1 -48 48z" fill="#cfd2fc" data-original="#cfd2fc" style="" class=""/><path xmlns="http://www.w3.org/2000/svg" d="m136 136h80v96h-80z" fill="#2d2a9b" data-original="#5153ff" style="" class=""/><path xmlns="http://www.w3.org/2000/svg" d="m72 360h368a0 0 0 0 1 0 0v80a48 48 0 0 1 -48 48h-272a48 48 0 0 1 -48-48v-80a0 0 0 0 1 0 0z" fill="#2d2a9b" data-original="#5153ff" style="" class=""/><g xmlns="http://www.w3.org/2000/svg" fill="#8690fa"><path d="m440 120h-48a48 48 0 0 1 -48-48v-48z" fill="#2d2a9b" data-original="#8690fa" style="" class=""/><path d="m376 176h-128a8 8 0 0 1 0-16h128a8 8 0 0 1 0 16z" fill="#2d2a9b" data-original="#8690fa" style="" class=""/><path d="m280 208h-32a8 8 0 0 1 0-16h32a8 8 0 0 1 0 16z" fill="#2d2a9b" data-original="#8690fa" style="" class=""/><path d="m376 240h-128a8 8 0 0 1 0-16h128a8 8 0 0 1 0 16z" fill="#2d2a9b" data-original="#8690fa" style="" class=""/><path d="m320 272h-184a8 8 0 0 1 0-16h184a8 8 0 0 1 0 16z" fill="#2d2a9b" data-original="#8690fa" style="" class=""/><path d="m376 208h-64a8 8 0 0 1 0-16h64a8 8 0 0 1 0 16z" fill="#2d2a9b" data-original="#8690fa" style="" class=""/><path d="m376 272h-24a8 8 0 0 1 0-16h24a8 8 0 0 1 0 16z" fill="#2d2a9b" data-original="#8690fa" style="" class=""/><path d="m184 304h-48a8 8 0 0 1 0-16h48a8 8 0 0 1 0 16z" fill="#2d2a9b" data-original="#8690fa" style="" class=""/><path d="m296 304h-80a8 8 0 0 1 0-16h80a8 8 0 0 1 0 16z" fill="#2d2a9b" data-original="#8690fa" style="" class=""/><path d="m376 304h-48a8 8 0 0 1 0-16h48a8 8 0 0 1 0 16z" fill="#2d2a9b" data-original="#8690fa" style="" class=""/><path d="m312 144h-64a8 8 0 0 1 0-16h64a8 8 0 0 1 0 16z" fill="#2d2a9b" data-original="#8690fa" style="" class=""/></g><path xmlns="http://www.w3.org/2000/svg" d="m336 384h-32a8 8 0 0 0 -8 8v64a8 8 0 0 0 16 0v-24h8a8 8 0 0 0 0-16h-8v-16h24a8 8 0 0 0 0-16z" fill="#ffffff" data-original="#ffffff" style="" class=""/><path xmlns="http://www.w3.org/2000/svg" d="m192 384h-16a8 8 0 0 0 -8 8v64a8 8 0 0 0 16 0v-24h8a24 24 0 0 0 0-48zm0 32h-8v-16h8a8 8 0 0 1 0 16z" fill="#ffffff" data-original="#ffffff" style="" class=""/><path xmlns="http://www.w3.org/2000/svg" d="m240 384a8 8 0 0 0 -8 8v64a8 8 0 0 0 8 8 40 40 0 0 0 0-80zm8 62.629v-45.258a24 24 0 0 1 0 45.258z" fill="#ffffff" data-original="#ffffff" style="" class=""/></g></svg>
