<?xml version="1.0"?>
<svg xmlns="http://www.w3.org/2000/svg" xmlns:xlink="http://www.w3.org/1999/xlink" xmlns:svgjs="http://svgjs.com/svgjs" version="1.1" width="512" height="512" x="0" y="0" viewBox="0 0 480 480" style="enable-background:new 0 0 512 512" xml:space="preserve" class=""><g transform="matrix(1,0,0,1,0,0)"><linearGradient xmlns="http://www.w3.org/2000/svg" id="a"><stop stop-opacity="1" stop-color="#2d2a9b" offset="0"/><stop stop-opacity="1" stop-color="#18eeab" offset="1"/></linearGradient><linearGradient xmlns="http://www.w3.org/2000/svg" xmlns:xlink="http://www.w3.org/1999/xlink" id="b" gradientUnits="userSpaceOnUse" x1="37.112" x2="501.112" xlink:href="#a" y1="428.896" y2="-3.104"/><linearGradient xmlns="http://www.w3.org/2000/svg" xmlns:xlink="http://www.w3.org/1999/xlink" id="c" gradientUnits="userSpaceOnUse" x1="-24.528" x2="439.472" xlink:href="#a" y1="362.696" y2="-69.304"/><linearGradient xmlns="http://www.w3.org/2000/svg" xmlns:xlink="http://www.w3.org/1999/xlink" id="d" gradientUnits="userSpaceOnUse" x1="39.312" x2="503.312" xlink:href="#a" y1="431.264" y2="-.736"/><linearGradient xmlns="http://www.w3.org/2000/svg" xmlns:xlink="http://www.w3.org/1999/xlink" id="e" gradientUnits="userSpaceOnUse" x1="34.912" x2="498.912" xlink:href="#a" y1="426.536" y2="-5.464"/><linearGradient xmlns="http://www.w3.org/2000/svg" xmlns:xlink="http://www.w3.org/1999/xlink" id="f" gradientUnits="userSpaceOnUse" x1="59.632" x2="523.632" xlink:href="#a" y1="453.088" y2="21.088"/><linearGradient xmlns="http://www.w3.org/2000/svg" xmlns:xlink="http://www.w3.org/1999/xlink" id="g" gradientUnits="userSpaceOnUse" x1="99.568" x2="563.568" xlink:href="#a" y1="495.984" y2="63.984"/><linearGradient xmlns="http://www.w3.org/2000/svg" xmlns:xlink="http://www.w3.org/1999/xlink" id="h" gradientUnits="userSpaceOnUse" x1="91.8" x2="555.8" xlink:href="#a" y1="487.632" y2="55.632"/><linearGradient xmlns="http://www.w3.org/2000/svg" xmlns:xlink="http://www.w3.org/1999/xlink" id="i" gradientUnits="userSpaceOnUse" x1="126.168" x2="590.168" xlink:href="#a" y1="524.552" y2="92.552"/><linearGradient xmlns="http://www.w3.org/2000/svg" xmlns:xlink="http://www.w3.org/1999/xlink" id="j" gradientUnits="userSpaceOnUse" x1="84.92" x2="548.92" xlink:href="#a" y1="480.248" y2="48.248"/><path xmlns="http://www.w3.org/2000/svg" d="m240 0c-132.546875 0-240 107.453125-240 240s107.453125 240 240 240 240-107.453125 240-240c-.148438-132.484375-107.515625-239.851562-240-240zm0 464c-123.710938 0-224-100.289062-224-224s100.289062-224 224-224 224 100.289062 224 224c-.140625 123.652344-100.347656 223.859375-224 224zm0 0" fill="url(#b)" data-original="url(#b)" style="" class=""/><path xmlns="http://www.w3.org/2000/svg" d="m224 120h-96c-4.417969 0-8 3.582031-8 8v96c0 4.417969 3.582031 8 8 8h96c4.417969 0 8-3.582031 8-8v-96c0-4.417969-3.582031-8-8-8zm-8 96h-80v-80h80zm0 0" fill="url(#c)" data-original="url(#c)" style=""/><path xmlns="http://www.w3.org/2000/svg" d="m160 200h32c4.417969 0 8-3.582031 8-8v-32c0-4.417969-3.582031-8-8-8h-32c-4.417969 0-8 3.582031-8 8v32c0 4.417969 3.582031 8 8 8zm8-32h16v16h-16zm0 0" fill="url(#c)" data-original="url(#c)" style=""/><path xmlns="http://www.w3.org/2000/svg" d="m224 248h-96c-4.417969 0-8 3.582031-8 8v96c0 4.417969 3.582031 8 8 8h96c4.417969 0 8-3.582031 8-8v-96c0-4.417969-3.582031-8-8-8zm-8 96h-80v-80h80zm0 0" fill="url(#d)" data-original="url(#d)" style="" class=""/><path xmlns="http://www.w3.org/2000/svg" d="m160 328h32c4.417969 0 8-3.582031 8-8v-32c0-4.417969-3.582031-8-8-8h-32c-4.417969 0-8 3.582031-8 8v32c0 4.417969 3.582031 8 8 8zm8-32h16v16h-16zm0 0" fill="url(#d)" data-original="url(#d)" style="" class=""/><path xmlns="http://www.w3.org/2000/svg" d="m352 120h-96c-4.417969 0-8 3.582031-8 8v64h16v-56h80v80h-80v-8h-16v16c0 4.417969 3.582031 8 8 8h96c4.417969 0 8-3.582031 8-8v-96c0-4.417969-3.582031-8-8-8zm0 0" fill="url(#e)" data-original="url(#e)" style=""/><path xmlns="http://www.w3.org/2000/svg" d="m320 200c4.417969 0 8-3.582031 8-8v-32c0-4.417969-3.582031-8-8-8h-32c-4.417969 0-8 3.582031-8 8v32c0 4.417969 3.582031 8 8 8zm-24-32h16v16h-16zm0 0" fill="url(#e)" data-original="url(#e)" style=""/><path xmlns="http://www.w3.org/2000/svg" d="m264 264h24v-16h-32c-4.417969 0-8 3.582031-8 8v32h16zm0 0" fill="url(#f)" data-original="url(#f)" style=""/><path xmlns="http://www.w3.org/2000/svg" d="m304 296h-48c-4.417969 0-8 3.582031-8 8v48c0 4.417969 3.582031 8 8 8h48c4.417969 0 8-3.582031 8-8v-48c0-4.417969-3.582031-8-8-8zm-8 48h-32v-32h32zm0 0" fill="url(#g)" data-original="url(#g)" style=""/><path xmlns="http://www.w3.org/2000/svg" d="m352 248h-48v16h40v16h16v-24c0-4.417969-3.582031-8-8-8zm0 0" fill="url(#h)" data-original="url(#h)" style=""/><path xmlns="http://www.w3.org/2000/svg" d="m352 288h-24v16h16v40h-24v16h32c4.417969 0 8-3.582031 8-8v-56c0-4.417969-3.582031-8-8-8zm0 0" fill="url(#i)" data-original="url(#i)" style=""/><path xmlns="http://www.w3.org/2000/svg" d="m280 272h40v16h-40zm0 0" fill="url(#j)" data-original="url(#j)" style=""/></g></svg>
